<?xml version="1.0" encoding="UTF-8"?>
<svg xmlns="http://www.w3.org/2000/svg" xmlns:xlink="http://www.w3.org/1999/xlink" width="423px" height="1147px" viewBox="0 0 423 1147" version="1.1">
<defs>
<clipPath id="clip1">
  <path d="M 299.066406 100.628906 L 308.636719 100.628906 L 308.636719 108.484375 L 299.066406 108.484375 Z M 299.066406 100.628906 "/>
</clipPath>
<clipPath id="clip2">
  <path d="M 299.066406 171.703125 L 308.636719 171.703125 L 308.636719 179.558594 L 299.066406 179.558594 Z M 299.066406 171.703125 "/>
</clipPath>
<clipPath id="clip3">
  <path d="M 299.066406 242.777344 L 308.636719 242.777344 L 308.636719 250.632812 L 299.066406 250.632812 Z M 299.066406 242.777344 "/>
</clipPath>
<clipPath id="clip4">
  <path d="M 299.066406 313.855469 L 308.636719 313.855469 L 308.636719 321.710938 L 299.066406 321.710938 Z M 299.066406 313.855469 "/>
</clipPath>
<clipPath id="clip5">
  <path d="M 299.066406 403.632812 L 308.636719 403.632812 L 308.636719 411.488281 L 299.066406 411.488281 Z M 299.066406 403.632812 "/>
</clipPath>
<clipPath id="clip6">
  <path d="M 299.066406 516.980469 L 308.636719 516.980469 L 308.636719 524.835938 L 299.066406 524.835938 Z M 299.066406 516.980469 "/>
</clipPath>
<clipPath id="clip7">
  <path d="M 155 598 L 165 598 L 165 608 L 155 608 Z M 155 598 "/>
</clipPath>
<clipPath id="clip8">
  <path d="M 159.355469 598.402344 L 166.691406 601.226562 L 163.253906 610.152344 L 155.917969 607.328125 Z M 159.355469 598.402344 "/>
</clipPath>
<clipPath id="clip9">
  <path d="M 258 598 L 268 598 L 268 608 L 258 608 Z M 258 598 "/>
</clipPath>
<clipPath id="clip10">
  <path d="M 267.082031 607.328125 L 259.746094 610.152344 L 256.308594 601.226562 L 263.644531 598.402344 Z M 267.082031 607.328125 "/>
</clipPath>
<clipPath id="clip11">
  <path d="M 206.714844 666.988281 L 216.285156 666.988281 L 216.285156 674.84375 L 206.714844 674.84375 Z M 206.714844 666.988281 "/>
</clipPath>
<clipPath id="clip12">
  <path d="M 206 738 L 217 738 L 217 747 L 206 747 Z M 206 738 "/>
</clipPath>
<clipPath id="clip13">
  <path d="M 216.445312 738.34375 L 216.597656 746.199219 L 207.03125 746.386719 L 206.878906 738.53125 Z M 216.445312 738.34375 "/>
</clipPath>
<clipPath id="clip14">
  <path d="M 97.078125 919.933594 L 106.648438 919.933594 L 106.648438 927.789062 L 97.078125 927.789062 Z M 97.078125 919.933594 "/>
</clipPath>
<clipPath id="clip15">
  <path d="M 147 993 L 157 993 L 157 1004 L 147 1004 Z M 147 993 "/>
</clipPath>
<clipPath id="clip16">
  <path d="M 150.71875 993.960938 L 158.195312 996.382812 L 155.242188 1005.480469 L 147.765625 1003.058594 Z M 150.71875 993.960938 "/>
</clipPath>
<clipPath id="clip17">
  <path d="M 273 994 L 283 994 L 283 1004 L 273 1004 Z M 273 994 "/>
</clipPath>
<clipPath id="clip18">
  <path d="M 282.378906 1003.484375 L 274.820312 1005.636719 L 272.199219 996.4375 L 279.757812 994.285156 Z M 282.378906 1003.484375 "/>
</clipPath>
<clipPath id="clip19">
  <path d="M 206.714844 1062.082031 L 216.285156 1062.082031 L 216.285156 1069.9375 L 206.714844 1069.9375 Z M 206.714844 1062.082031 "/>
</clipPath>
</defs>
<g id="surface1">
<path style="fill-rule:nonzero;fill:rgb(100%,100%,100%);fill-opacity:1;stroke-width:1;stroke-linecap:butt;stroke-linejoin:miter;stroke:rgb(90.196079%,90.196079%,90.196079%);stroke-opacity:1;stroke-miterlimit:4;" d="M 7.99877 670.000056 L 539.078375 670.000056 L 539.078375 1525.088771 L 7.99877 1525.088771 Z M 7.99877 670.000056 " transform="matrix(0.74863,0,0,0.748163,0.117351,0)"/>
<path style="fill-rule:nonzero;fill:rgb(100%,100%,100%);fill-opacity:1;stroke-width:1;stroke-linecap:butt;stroke-linejoin:miter;stroke:rgb(90.196079%,90.196079%,90.196079%);stroke-opacity:1;stroke-miterlimit:4;" d="M 254.72034 7.998754 L 556.71998 7.998754 L 556.71998 503.999809 L 254.72034 503.999809 Z M 254.72034 7.998754 " transform="matrix(0.74863,0,0,0.748163,0.117351,0)"/>
<path style="fill:none;stroke-width:1;stroke-linecap:butt;stroke-linejoin:miter;stroke:rgb(0%,0%,0%);stroke-opacity:1;stroke-dasharray:37,9;stroke-miterlimit:4;" d="M 405.72016 98.997632 L 405.72016 145.000908 " transform="matrix(0.74863,0,0,0.748163,0.117351,0)"/>
<g clip-path="url(#clip1)" clip-rule="nonzero">
<path style=" stroke:none;fill-rule:nonzero;fill:rgb(0%,0%,0%);fill-opacity:1;" d="M 308.636719 100.628906 L 303.851562 108.484375 L 299.066406 100.628906 Z M 308.636719 100.628906 "/>
</g>
<path style="fill:none;stroke-width:1;stroke-linecap:butt;stroke-linejoin:miter;stroke:rgb(0%,0%,0%);stroke-opacity:1;stroke-dasharray:37,9;stroke-miterlimit:4;" d="M 405.72016 194.001107 L 405.72016 239.999163 " transform="matrix(0.74863,0,0,0.748163,0.117351,0)"/>
<g clip-path="url(#clip2)" clip-rule="nonzero">
<path style=" stroke:none;fill-rule:nonzero;fill:rgb(0%,0%,0%);fill-opacity:1;" d="M 308.636719 171.703125 L 303.851562 179.558594 L 299.066406 171.703125 Z M 308.636719 171.703125 "/>
</g>
<path style="fill:none;stroke-width:1;stroke-linecap:butt;stroke-linejoin:miter;stroke:rgb(0%,0%,0%);stroke-opacity:1;stroke-dasharray:37,9;stroke-miterlimit:4;" d="M 405.72016 288.999362 L 405.72016 334.997418 " transform="matrix(0.74863,0,0,0.748163,0.117351,0)"/>
<g clip-path="url(#clip3)" clip-rule="nonzero">
<path style=" stroke:none;fill-rule:nonzero;fill:rgb(0%,0%,0%);fill-opacity:1;" d="M 308.636719 242.777344 L 303.851562 250.632812 L 299.066406 242.777344 Z M 308.636719 242.777344 "/>
</g>
<path style="fill:none;stroke-width:1;stroke-linecap:butt;stroke-linejoin:miter;stroke:rgb(0%,0%,0%);stroke-opacity:1;stroke-dasharray:37,9;stroke-miterlimit:4;" d="M 405.72016 383.997617 L 405.72016 430.000893 " transform="matrix(0.74863,0,0,0.748163,0.117351,0)"/>
<g clip-path="url(#clip4)" clip-rule="nonzero">
<path style=" stroke:none;fill-rule:nonzero;fill:rgb(0%,0%,0%);fill-opacity:1;" d="M 308.636719 313.855469 L 303.851562 321.710938 L 299.066406 313.855469 Z M 308.636719 313.855469 "/>
</g>
<path style="fill:none;stroke-width:1;stroke-linecap:butt;stroke-linejoin:miter;stroke:rgb(0%,0%,0%);stroke-opacity:1;stroke-dasharray:62,9;stroke-miterlimit:4;" d="M 405.72016 479.001092 L 405.72016 549.997864 " transform="matrix(0.74863,0,0,0.748163,0.117351,0)"/>
<g clip-path="url(#clip5)" clip-rule="nonzero">
<path style=" stroke:none;fill-rule:nonzero;fill:rgb(0%,0%,0%);fill-opacity:1;" d="M 308.636719 403.632812 L 303.851562 411.488281 L 299.066406 403.632812 Z M 308.636719 403.632812 "/>
</g>
<path style="fill:none;stroke-width:1;stroke-linecap:butt;stroke-linejoin:miter;stroke:rgb(0%,0%,0%);stroke-opacity:1;stroke-dasharray:72.5,9;stroke-miterlimit:4;" d="M 405.72016 619.997403 L 405.72016 701.499066 " transform="matrix(0.74863,0,0,0.748163,0.117351,0)"/>
<g clip-path="url(#clip6)" clip-rule="nonzero">
<path style=" stroke:none;fill-rule:nonzero;fill:rgb(0%,0%,0%);fill-opacity:1;" d="M 308.636719 516.980469 L 303.851562 524.835938 L 299.066406 516.980469 Z M 308.636719 516.980469 "/>
</g>
<path style="fill:none;stroke-width:1;stroke-linecap:butt;stroke-linejoin:miter;stroke:rgb(0%,0%,0%);stroke-opacity:1;stroke-dasharray:79.560837,9;stroke-miterlimit:4;" d="M 158.99859 760.998934 L 158.99859 777.163518 C 158.99859 783.05294 161.748406 787.057538 167.242818 789.172091 L 220.209375 809.56578 " transform="matrix(0.74863,0,0,0.748163,0.117351,0)"/>
<g clip-path="url(#clip7)" clip-rule="nonzero">
<g clip-path="url(#clip8)" clip-rule="nonzero">
<path style=" stroke:none;fill-rule:nonzero;fill:rgb(0%,0%,0%);fill-opacity:1;" d="M 159.355469 598.402344 L 164.972656 605.6875 L 155.917969 607.328125 Z M 159.355469 598.402344 "/>
</g>
</g>
<path style="fill:none;stroke-width:1;stroke-linecap:butt;stroke-linejoin:miter;stroke:rgb(0%,0%,0%);stroke-opacity:1;stroke-dasharray:90.060844,9;stroke-miterlimit:4;" d="M 405.72016 750.499264 L 405.72016 777.163518 C 405.72016 783.05294 402.970344 787.057538 397.475932 789.172091 L 344.509375 809.56578 " transform="matrix(0.74863,0,0,0.748163,0.117351,0)"/>
<g clip-path="url(#clip9)" clip-rule="nonzero">
<g clip-path="url(#clip10)" clip-rule="nonzero">
<path style=" stroke:none;fill-rule:nonzero;fill:rgb(0%,0%,0%);fill-opacity:1;" d="M 267.082031 607.328125 L 258.027344 605.6875 L 263.644531 598.402344 Z M 267.082031 607.328125 "/>
</g>
</g>
<path style="fill:none;stroke-width:1;stroke-linecap:butt;stroke-linejoin:miter;stroke:rgb(0%,0%,0%);stroke-opacity:1;stroke-dasharray:37,9;stroke-miterlimit:4;" d="M 282.359375 856.00241 L 282.359375 902.000466 " transform="matrix(0.74863,0,0,0.748163,0.117351,0)"/>
<g clip-path="url(#clip11)" clip-rule="nonzero">
<path style=" stroke:none;fill-rule:nonzero;fill:rgb(0%,0%,0%);fill-opacity:1;" d="M 216.285156 666.988281 L 211.5 674.84375 L 206.714844 666.988281 Z M 216.285156 666.988281 "/>
</g>
<path style="fill:none;stroke-width:1;stroke-linecap:butt;stroke-linejoin:miter;stroke:rgb(0%,0%,0%);stroke-opacity:1;stroke-dasharray:37.504242,9;stroke-miterlimit:4;" d="M 282.359375 951.000665 L 282.359375 965.249097 C 282.359375 972.417693 282.427207 979.581068 282.56809 986.749664 L 282.782022 997.499948 " transform="matrix(0.74863,0,0,0.748163,0.117351,0)"/>
<g clip-path="url(#clip12)" clip-rule="nonzero">
<g clip-path="url(#clip13)" clip-rule="nonzero">
<path style=" stroke:none;fill-rule:nonzero;fill:rgb(0%,0%,0%);fill-opacity:1;" d="M 216.445312 738.34375 L 211.816406 746.292969 L 206.878906 738.53125 Z M 216.445312 738.34375 "/>
</g>
</g>
<path style="fill:none;stroke-width:1;stroke-linecap:butt;stroke-linejoin:miter;stroke:rgb(0%,0%,0%);stroke-opacity:1;stroke-dasharray:150.298248,9;stroke-miterlimit:4;" d="M 235.836883 1126.566002 L 144.946878 1201.165346 C 138.920243 1206.114966 135.909534 1212.484731 135.909534 1220.285082 L 135.909534 1240.088786 " transform="matrix(0.74863,0,0,0.748163,0.117351,0)"/>
<g clip-path="url(#clip14)" clip-rule="nonzero">
<path style=" stroke:none;fill-rule:nonzero;fill:rgb(0%,0%,0%);fill-opacity:1;" d="M 106.648438 919.933594 L 101.863281 927.789062 L 97.078125 919.933594 Z M 106.648438 919.933594 "/>
</g>
<path style="fill:none;stroke-width:1;stroke-linecap:butt;stroke-linejoin:miter;stroke:rgb(0%,0%,0%);stroke-opacity:1;stroke-dasharray:90.911461,9;stroke-miterlimit:4;" d="M 135.909534 1289.088984 L 135.909534 1305.582498 C 135.909534 1311.252633 138.607171 1314.959628 143.997226 1316.708702 L 209.184024 1337.854233 " transform="matrix(0.74863,0,0,0.748163,0.117351,0)"/>
<g clip-path="url(#clip15)" clip-rule="nonzero">
<g clip-path="url(#clip16)" clip-rule="nonzero">
<path style=" stroke:none;fill-rule:nonzero;fill:rgb(0%,0%,0%);fill-opacity:1;" d="M 150.71875 993.960938 L 156.71875 1000.933594 L 147.765625 1003.058594 Z M 150.71875 993.960938 "/>
</g>
</g>
<path style="fill:none;stroke-width:1;stroke-linecap:butt;stroke-linejoin:miter;stroke:rgb(0%,0%,0%);stroke-opacity:1;stroke-dasharray:324.044586,9;stroke-miterlimit:4;" d="M 332.628295 1123.819693 L 440.189381 1202.099926 C 446.132531 1206.423012 449.101496 1212.260223 449.101496 1219.611558 L 449.101496 1305.791343 C 449.101496 1311.320508 446.440385 1314.844763 441.123379 1316.358887 L 365.187778 1337.989982 " transform="matrix(0.74863,0,0,0.748163,0.117351,0)"/>
<g clip-path="url(#clip17)" clip-rule="nonzero">
<g clip-path="url(#clip18)" clip-rule="nonzero">
<path style=" stroke:none;fill-rule:nonzero;fill:rgb(0%,0%,0%);fill-opacity:1;" d="M 282.378906 1003.484375 L 273.507812 1001.035156 L 279.757812 994.285156 Z M 282.378906 1003.484375 "/>
</g>
</g>
<path style="fill:none;stroke-width:1;stroke-linecap:butt;stroke-linejoin:miter;stroke:rgb(0%,0%,0%);stroke-opacity:1;stroke-dasharray:37,9;stroke-miterlimit:4;" d="M 282.359375 1384.087239 L 282.359375 1430.085295 " transform="matrix(0.74863,0,0,0.748163,0.117351,0)"/>
<g clip-path="url(#clip19)" clip-rule="nonzero">
<path style=" stroke:none;fill-rule:nonzero;fill:rgb(0%,0%,0%);fill-opacity:1;" d="M 216.285156 1062.082031 L 211.5 1069.9375 L 206.714844 1062.082031 Z M 216.285156 1062.082031 "/>
</g>
<path style="fill-rule:nonzero;fill:rgb(100%,100%,100%);fill-opacity:1;stroke-width:1;stroke-linecap:butt;stroke-linejoin:miter;stroke:rgb(0%,0%,0%);stroke-opacity:1;stroke-miterlimit:4;" d="M -116.002184 -33.00253 L 115.999785 -33.00253 L 115.999785 32.997632 L -116.002184 32.997632 Z M -116.002184 -33.00253 " transform="matrix(0.74863,0,0,0.748163,303.850507,49.378785)"/>
<path style="fill-rule:nonzero;fill:rgb(100%,100%,100%);fill-opacity:1;stroke-width:1;stroke-linecap:butt;stroke-linejoin:miter;stroke:rgb(0%,0%,0%);stroke-opacity:1;stroke-miterlimit:4;" d="M -58.417817 -22.499715 L 58.420636 -22.499715 L 58.420636 22.501107 L -58.417817 22.501107 Z M -58.417817 -22.499715 " transform="matrix(0.74863,0,0,0.748163,303.850507,128.310026)"/>
<path style="fill-rule:nonzero;fill:rgb(100%,100%,100%);fill-opacity:1;stroke-width:1;stroke-linecap:butt;stroke-linejoin:miter;stroke:rgb(0%,0%,0%);stroke-opacity:1;stroke-miterlimit:4;" d="M -109.005026 -22.50146 L 109.007845 -22.50146 L 109.007845 22.499362 L -109.005026 22.499362 Z M -109.005026 -22.50146 " transform="matrix(0.74863,0,0,0.748163,303.850507,199.38555)"/>
<path style="fill-rule:nonzero;fill:rgb(100%,100%,100%);fill-opacity:1;stroke-width:1;stroke-linecap:butt;stroke-linejoin:miter;stroke:rgb(0%,0%,0%);stroke-opacity:1;stroke-miterlimit:4;" d="M -79.816284 -22.497984 L 79.819104 -22.497984 L 79.819104 22.497617 L -79.816284 22.497617 Z M -79.816284 -22.497984 " transform="matrix(0.74863,0,0,0.748163,303.850507,270.461075)"/>
<path style="fill-rule:nonzero;fill:rgb(100%,100%,100%);fill-opacity:1;stroke-width:1;stroke-linecap:butt;stroke-linejoin:miter;stroke:rgb(0%,0%,0%);stroke-opacity:1;stroke-miterlimit:4;" d="M -107.043108 -22.49973 L 107.045928 -22.49973 L 107.045928 22.501092 L -107.043108 22.501092 Z M -107.043108 -22.49973 " transform="matrix(0.74863,0,0,0.748163,303.850507,341.5366)"/>
<path style="fill-rule:nonzero;fill:rgb(100%,100%,100%);fill-opacity:1;stroke-width:1;stroke-linecap:butt;stroke-linejoin:miter;stroke:rgb(0%,0%,0%);stroke-opacity:1;stroke-miterlimit:4;" d="M -116.002184 -32.997538 L 115.999785 -32.997538 L 115.999785 32.997403 L -116.002184 32.997403 Z M -116.002184 -32.997538 " transform="matrix(0.74863,0,0,0.748163,303.850507,439.171925)"/>
<path style="fill-rule:nonzero;fill:rgb(100%,100%,100%);fill-opacity:1;stroke-width:1;stroke-linecap:butt;stroke-linejoin:miter;stroke:rgb(0%,0%,0%);stroke-opacity:1;stroke-miterlimit:4;" d="M -80.718975 -22.501558 L 80.716577 -22.501558 L 80.716577 22.499264 L -80.718975 22.499264 Z M -80.718975 -22.501558 " transform="matrix(0.74863,0,0,0.748163,303.850507,544.662967)"/>
<path style="fill-rule:nonzero;fill:rgb(100%,100%,100%);fill-opacity:1;stroke-width:1;stroke-linecap:butt;stroke-linejoin:miter;stroke:rgb(0%,0%,0%);stroke-opacity:1;stroke-miterlimit:4;" d="M -115.999785 -33.001227 L 116.002184 -33.001227 L 116.002184 32.998934 L -115.999785 32.998934 Z M -115.999785 -33.001227 " transform="matrix(0.74863,0,0,0.748163,119.149493,544.662967)"/>
<path style="fill-rule:nonzero;fill:rgb(100%,100%,100%);fill-opacity:1;stroke-width:1;stroke-linecap:butt;stroke-linejoin:miter;stroke:rgb(0%,0%,0%);stroke-opacity:1;stroke-miterlimit:4;" d="M -58.419226 -22.498412 L 58.419226 -22.498412 L 58.419226 22.50241 L -58.419226 22.50241 Z M -58.419226 -22.498412 " transform="matrix(0.74863,0,0,0.748163,211.5,623.594208)"/>
<path style="fill-rule:nonzero;fill:rgb(100%,100%,100%);fill-opacity:1;stroke-width:1;stroke-linecap:butt;stroke-linejoin:miter;stroke:rgb(0%,0%,0%);stroke-opacity:1;stroke-miterlimit:4;" d="M -100.297817 -22.500157 L 100.297817 -22.500157 L 100.297817 22.500665 L -100.297817 22.500665 Z M -100.297817 -22.500157 " transform="matrix(0.74863,0,0,0.748163,211.5,694.669732)"/>
<path style="fill-rule:nonzero;fill:rgb(100%,100%,100%);fill-opacity:1;stroke-width:1;stroke-linecap:butt;stroke-linejoin:miter;stroke:rgb(0%,0%,0%);stroke-opacity:1;stroke-miterlimit:4;" d="M 86.043747 -0.00127879 L 172.086355 -86.045315 L 86.043747 -172.089351 L 0.00113898 -86.045315 Z M 86.043747 -0.00127879 " transform="matrix(0.74863,0,0,0.748163,147.085085,877.661113)"/>
<path style="fill-rule:nonzero;fill:rgb(100%,100%,100%);fill-opacity:1;stroke-width:1;stroke-linecap:butt;stroke-linejoin:miter;stroke:rgb(0%,0%,0%);stroke-opacity:1;stroke-miterlimit:4;" d="M -69.820107 -22.499362 L 69.820419 -22.499362 L 69.820419 22.50146 L -69.820107 22.50146 Z M -69.820107 -22.499362 " transform="matrix(0.74863,0,0,0.748163,101.863164,947.61445)"/>
<path style="fill-rule:nonzero;fill:rgb(100%,100%,100%);fill-opacity:1;stroke-width:1;stroke-linecap:butt;stroke-linejoin:miter;stroke:rgb(0%,0%,0%);stroke-opacity:1;stroke-miterlimit:4;" d="M -103.412883 -22.501107 L 103.412883 -22.501107 L 103.412883 22.499715 L -103.412883 22.499715 Z M -103.412883 -22.501107 " transform="matrix(0.74863,0,0,0.748163,211.5,1018.689974)"/>
<path style="fill-rule:nonzero;fill:rgb(100%,100%,100%);fill-opacity:1;stroke-width:1;stroke-linecap:butt;stroke-linejoin:miter;stroke:rgb(0%,0%,0%);stroke-opacity:1;stroke-miterlimit:4;" d="M -115.998376 -32.997632 L 115.998376 -32.997632 L 115.998376 33.00253 L -115.998376 33.00253 Z M -115.998376 -32.997632 " transform="matrix(0.74863,0,0,0.748163,211.5,1097.621215)"/>
</g>
</svg>
